<svg width="106" 
  height="19" 
  viewBox="0 0 106 19" 
  fill="none" 
  xmlns="http://www.w3.org/2000/svg">
  <g id="Logo">
    <path id="AK&#196;&#176;P" 
      d="M74.9082 14.6602H69.5469L68.3428 18H66.6025L71.4893 5.20312H72.9658L77.8613 18H76.1299L74.9082 14.6602ZM70.0566 13.2715H74.4072L72.2275 7.28613L70.0566 13.2715ZM82.8359 12.0498L81.2715 13.6758V18H79.584V5.20312H81.2715V11.5312L86.958 5.20312H88.9971L83.9609 10.8545L89.3926 18H87.3711L82.8359 12.0498ZM92.6797 18H90.9922V5.20312H92.6797V18ZM90.8691 3.15527C90.8691 2.8916 90.9482 2.66895 91.1064 2.4873C91.2705 2.30566 91.5107 2.21484 91.8271 2.21484C92.1436 2.21484 92.3838 2.30566 92.5479 2.4873C92.7119 2.66895 92.7939 2.8916 92.7939 3.15527C92.7939 3.41895 92.7119 3.63867 92.5479 3.81445C92.3838 3.99023 92.1436 4.07812 91.8271 4.07812C91.5107 4.07812 91.2705 3.99023 91.1064 3.81445C90.9482 3.63867 90.8691 3.41895 90.8691 3.15527ZM97.4609 12.9902V18H95.7734V5.20312H100.493C101.894 5.20312 102.989 5.56055 103.78 6.27539C104.577 6.99023 104.976 7.93652 104.976 9.11426C104.976 10.3564 104.586 11.3145 103.807 11.9883C103.033 12.6562 101.923 12.9902 100.476 12.9902H97.4609ZM97.4609 11.6104H100.493C101.396 11.6104 102.087 11.3994 102.567 10.9775C103.048 10.5498 103.288 9.93457 103.288 9.13184C103.288 8.37012 103.048 7.76074 102.567 7.30371C102.087 6.84668 101.428 6.60938 100.59 6.5918H97.4609V11.6104Z" 
      fill="white" />
    <path id="T" 
      d="M68.1094 2.78906H62.625V18H60.3867V2.78906H54.9141V0.9375H68.1094V2.78906Z" 
      fill="white" />
    <path id="OREX" 
      d="M23.3379 12.0146C23.3379 13.2686 23.127 14.3643 22.7051 15.3018C22.2832 16.2334 21.6855 16.9453 20.9121 17.4375C20.1387 17.9297 19.2363 18.1758 18.2051 18.1758C17.1973 18.1758 16.3037 17.9297 15.5244 17.4375C14.7451 16.9395 14.1387 16.2334 13.7051 15.3193C13.2773 14.3994 13.0576 13.3359 13.0459 12.1289V11.2061C13.0459 9.97559 13.2598 8.88867 13.6875 7.94531C14.1152 7.00195 14.7188 6.28125 15.498 5.7832C16.2832 5.2793 17.1797 5.02734 18.1875 5.02734C19.2129 5.02734 20.1152 5.27637 20.8945 5.77441C21.6797 6.2666 22.2832 6.98438 22.7051 7.92773C23.127 8.86523 23.3379 9.95801 23.3379 11.2061V12.0146ZM21.6592 11.1885C21.6592 9.6709 21.3545 8.50781 20.7451 7.69922C20.1357 6.88477 19.2832 6.47754 18.1875 6.47754C17.1211 6.47754 16.2803 6.88477 15.665 7.69922C15.0557 8.50781 14.7422 9.63281 14.7246 11.0742V12.0146C14.7246 13.4854 15.0322 14.6426 15.6475 15.4863C16.2686 16.3242 17.1211 16.7432 18.2051 16.7432C19.2949 16.7432 20.1387 16.3477 20.7363 15.5566C21.334 14.7598 21.6416 13.6201 21.6592 12.1377V11.1885ZM30.5625 12.8232H27.5566V18H25.8604V5.20312H30.0967C31.5381 5.20312 32.6455 5.53125 33.4189 6.1875C34.1982 6.84375 34.5879 7.79883 34.5879 9.05273C34.5879 9.84961 34.3711 10.5439 33.9375 11.1357C33.5098 11.7275 32.9121 12.1699 32.1445 12.4629L35.1504 17.8945V18H33.3398L30.5625 12.8232ZM27.5566 11.4434H30.1494C30.9873 11.4434 31.6523 11.2266 32.1445 10.793C32.6426 10.3594 32.8916 9.7793 32.8916 9.05273C32.8916 8.26172 32.6543 7.65527 32.1797 7.2334C31.7109 6.81152 31.0312 6.59766 30.1406 6.5918H27.5566V11.4434ZM44.1943 12.085H38.6484V16.6201H45.0908V18H36.9609V5.20312H45.0029V6.5918H38.6484V10.7051H44.1943V12.085ZM51.3662 10.1074L54.4336 5.20312H56.4199L52.377 11.5488L56.5166 18H54.5127L51.3662 13.0078L48.2021 18H46.207L50.3555 11.5488L46.3037 5.20312H48.2812L51.3662 10.1074Z" 
      fill="white" />
    <path id="F" 
      d="M11.7578 10.4648H4.59766V18H2.34766V0.9375H12.918V2.78906H4.59766V8.625H11.7578V10.4648Z" 
      fill="white" />
  </g>
</svg>
